# xmcd
#
# Track frame offsets: 
#        150
#        22677
#        44184
#        64584
#        87244
#        104842
#        124960
#        146130
#        162390
#        186377
#        206141
#        228481
#        248810
#
# Disc length: 3597 seconds
#
# Revision: 0
# Processed by: cddbd v1.5.2PL0 Copyright (c) Steve Scherf et al.
# Submitted via: ExactAudioCopyFreeDBPlugin 1.0
#
DISCID=c50e0b0d
DTITLE=童丽  - DTS51爱我别走
DYEAR=2007
DGENRE=DTS
TTITLE0=当爱情经过的时候
TTITLE1=星晴
TTITLE2=翅膀
TTITLE3=爱我别走
TTITLE4=同桌的你
TTITLE5=夜的诗人
TTITLE6=一比一
TTITLE7=爱来的时候
TTITLE8=醉清风
TTITLE9=六月的雨
TTITLE10=老情歌
TTITLE11=下辈子如果我还记得你
TTITLE12=眼泪
EXTD=
EXTT0=
EXTT1=
EXTT2=
EXTT3=
EXTT4=
EXTT5=
EXTT6=
EXTT7=
EXTT8=
EXTT9=
EXTT10=
EXTT11=
EXTT12=
PLAYORDER=
